<?xml version="1.0" standalone="no"?>
<!DOCTYPE svg PUBLIC "-//W3C//DTD SVG 20010904//EN"
 "http://www.w3.org/TR/2001/REC-SVG-20010904/DTD/svg10.dtd">
<svg version="1.0" xmlns="http://www.w3.org/2000/svg"
 width="1280.000000pt" height="1280.000000pt" viewBox="0 0 1280.000000 1280.000000"
 preserveAspectRatio="xMidYMid meet">
<metadata>
Created by potrace 1.11, written by Peter Selinger 2001-2013
</metadata>
<g transform="translate(0.000000,1280.000000) scale(0.100000,-0.100000)"
fill="#000000" stroke="none">
<path d="M3929 12176 c-2 -2 -62 -7 -134 -10 -71 -3 -150 -8 -175 -10 -25 -3
-78 -7 -117 -10 -40 -3 -83 -10 -95 -17 -12 -7 -58 -13 -103 -15 -44 -1 -105
-6 -135 -10 -30 -4 -62 -8 -70 -9 -20 -3 -100 -16 -125 -22 -11 -2 -42 -6 -70
-9 -51 -5 -63 -7 -129 -23 -71 -17 -85 -50 -102 -231 -3 -36 -11 -72 -18 -80
-18 -21 -43 -118 -70 -270 -20 -115 -21 -135 -9 -158 16 -30 10 -127 -9 -150
-6 -7 -12 -34 -14 -60 -3 -42 -10 -112 -18 -167 -2 -11 -7 -47 -11 -80 -4 -33
-12 -66 -17 -72 -7 -9 -7 -13 1 -13 7 0 9 -10 6 -27 -3 -16 -8 -41 -10 -57 -2
-15 -11 -33 -19 -40 -14 -10 -43 -146 -62 -291 -3 -27 -8 -59 -10 -69 -2 -11
1 -25 7 -32 8 -10 6 -42 -6 -116 -18 -113 -22 -134 -30 -193 -4 -22 -8 -47
-10 -55 -2 -8 -7 -35 -10 -60 -15 -114 -27 -164 -45 -179 -11 -9 -21 -35 -24
-62 -4 -25 -15 -81 -26 -123 -30 -112 -33 -164 -11 -178 15 -9 17 -18 10 -47
-4 -20 -10 -56 -14 -81 -3 -25 -8 -56 -10 -70 -14 -67 -14 -71 -30 -210 -2
-19 -7 -60 -11 -90 -4 -30 -8 -66 -9 -80 -2 -14 -6 -52 -9 -85 -4 -33 -9 -78
-11 -100 -6 -51 -15 -133 -20 -165 -11 -80 -22 -211 -26 -323 -3 -63 -7 -80
-21 -88 -12 -7 -17 -20 -16 -47 1 -31 -9 -235 -16 -322 -1 -14 3 -34 8 -45 9
-20 9 -64 0 -225 -8 -131 -4 -403 11 -670 2 -52 7 -153 10 -225 7 -148 12
-228 20 -300 9 -92 16 -160 20 -205 8 -79 15 -144 20 -170 2 -14 6 -54 10 -90
3 -36 16 -123 30 -195 13 -71 26 -143 28 -160 4 -26 31 -171 43 -230 10 -50
56 -301 59 -319 1 -12 5 -28 8 -36 3 -8 8 -31 11 -50 3 -19 8 -46 10 -60 3
-17 -5 -32 -26 -52 -26 -24 -29 -32 -24 -70 3 -24 16 -81 29 -128 14 -47 35
-121 47 -165 28 -100 48 -143 70 -150 13 -4 22 -29 35 -93 9 -48 19 -98 22
-112 3 -14 5 -38 4 -55 -6 -99 -2 -139 23 -265 8 -41 15 -76 15 -77 1 -2 1 -4
2 -5 0 -2 2 -19 5 -38 6 -44 9 -60 18 -85 5 -11 13 -33 19 -50 6 -16 25 -47
43 -67 19 -22 35 -53 39 -75 3 -21 13 -72 22 -113 20 -89 14 -67 51 -220 42
-171 113 -471 117 -490 2 -8 13 -58 25 -110 12 -52 26 -111 30 -130 4 -19 18
-78 30 -130 12 -52 24 -106 26 -120 3 -14 22 -94 43 -179 37 -150 37 -155 19
-173 -21 -21 -20 -53 7 -178 7 -29 24 -115 31 -149 3 -14 7 -28 10 -33 3 -4 1
-8 -4 -8 -5 0 -13 -10 -19 -22 -9 -20 -3 -57 32 -213 3 -11 7 -31 11 -45 3
-14 7 -32 9 -40 2 -8 4 -23 4 -32 1 -9 16 -32 34 -51 25 -27 52 -40 122 -61
50 -15 110 -33 135 -41 50 -15 190 -51 233 -59 15 -4 37 -8 50 -11 12 -3 31
-7 42 -9 11 -2 31 -7 45 -10 14 -3 36 -8 50 -10 14 -3 75 -16 135 -29 61 -14
127 -28 148 -31 21 -3 47 -10 56 -16 10 -5 21 -7 24 -3 4 3 13 0 22 -7 8 -7
15 -10 15 -8 0 8 80 -8 115 -23 17 -6 41 -13 55 -14 14 -2 36 -6 50 -10 14 -3
45 -10 70 -15 25 -4 56 -11 70 -15 14 -4 33 -7 43 -7 9 1 15 -3 13 -7 -3 -4
13 -7 35 -6 22 1 43 -3 45 -7 3 -5 10 -6 15 -3 5 4 15 3 21 -1 12 -8 18 -9 91
-12 28 -1 36 -5 31 -14 -6 -10 -5 -10 8 -1 8 7 18 10 22 6 3 -4 23 -8 44 -10
20 -1 51 -5 67 -8 17 -3 46 -7 65 -10 49 -6 78 -13 90 -20 6 -3 10 0 10 7 0 8
3 9 8 3 8 -11 30 -18 50 -16 28 3 42 2 137 -3 101 -5 190 -11 325 -22 79 -6
128 -8 540 -19 482 -14 717 -11 1040 10 30 2 98 7 150 10 93 5 204 13 285 20
22 2 76 6 120 10 44 4 94 8 110 10 132 13 173 17 195 20 32 4 110 17 130 20
22 4 123 17 135 17 6 0 17 4 26 9 9 4 29 11 45 13 99 18 738 198 798 225 23
10 52 22 66 26 66 19 307 109 320 120 8 7 26 16 40 21 42 15 166 84 188 105
12 10 23 19 26 19 6 0 149 108 188 142 52 45 127 174 142 243 7 34 6 29 42
185 39 171 38 169 37 250 -3 107 -26 152 -118 236 -41 37 -80 71 -86 75 -6 3
-9 15 -5 25 3 11 8 42 11 69 4 28 8 61 11 75 2 14 7 41 10 60 3 19 12 62 19
95 8 33 16 71 19 85 4 25 73 348 103 485 19 88 18 86 33 175 9 52 20 83 36
100 20 22 33 61 50 145 6 32 44 196 54 236 14 53 13 59 -14 59 -18 0 -24 5
-22 17 2 10 7 38 11 63 4 25 9 54 11 65 11 55 24 135 29 175 3 25 8 56 10 70
2 14 7 45 10 70 3 25 8 56 10 70 2 14 7 50 10 80 6 52 8 70 19 138 3 15 8 54
12 87 3 33 8 69 11 80 2 11 6 38 8 59 3 22 15 50 27 63 12 13 23 29 24 36 1 6
7 41 13 77 6 36 13 76 16 90 2 14 6 43 9 65 3 22 10 64 15 94 14 70 14 70 -10
64 -20 -6 -21 -3 -14 58 3 35 8 71 10 79 2 8 7 47 10 85 3 39 8 81 10 95 2 14
7 70 10 125 4 55 9 120 11 145 23 263 23 1067 -1 1300 -2 25 -7 72 -10 105 -6
75 -14 156 -21 215 -3 25 -7 74 -10 110 -2 36 -6 79 -8 95 -3 17 -8 66 -11
110 -3 44 -8 96 -11 115 -2 19 -6 59 -9 88 -2 30 -9 79 -14 110 -16 94 -24
146 -22 157 7 35 7 112 0 139 -5 17 -18 80 -30 141 -11 62 -26 113 -34 117 -7
5 -17 32 -21 60 -4 29 -8 55 -9 58 -3 11 -15 77 -20 110 -8 55 -14 90 -30 165
-8 39 -17 79 -19 90 -12 54 -37 166 -50 220 -18 71 -19 88 -7 80 10 -6 34 29
26 37 -3 3 -16 70 -30 149 -33 192 -31 186 -59 193 -23 6 -26 12 -42 81 -1 6
-27 111 -58 234 -31 124 -58 236 -61 250 -3 14 -13 56 -24 93 -16 55 -17 66
-5 61 11 -4 14 0 10 18 -3 13 -20 87 -37 164 -17 77 -34 152 -36 168 -3 15
-13 33 -22 40 -10 6 -23 30 -29 52 -38 138 -51 182 -58 199 -5 14 -4 17 4 12
15 -9 15 -5 1 31 -25 63 -49 168 -83 358 -53 293 -69 358 -93 382 -13 13 -27
51 -37 99 -24 109 -25 113 -44 123 -15 7 -55 18 -137 36 -11 2 -51 11 -89 19
-37 9 -73 19 -80 24 -13 11 -133 28 -255 37 -47 4 -105 9 -130 11 -25 2 -82 6
-126 9 -44 3 -107 7 -140 9 -33 3 -118 8 -190 11 -71 4 -132 7 -135 7 -3 1
-13 -2 -22 -6 -13 -6 -361 -3 -528 5 -14 1 -36 1 -50 0 -103 -6 -938 17 -952
25 -4 2 -10 0 -13 -6 -4 -7 -39 -9 -98 -6 -156 9 -323 15 -532 21 -110 3 -220
8 -245 12 -48 7 -465 7 -615 0 -49 -3 -95 0 -101 4 -7 5 -110 12 -230 14 -121
3 -275 8 -344 12 -69 3 -262 7 -430 7 -168 1 -310 4 -316 8 -6 4 -13 6 -15 4z
m6221 -10580 c0 -3 15 -30 34 -59 44 -68 54 -118 32 -152 -23 -35 -127 -145
-147 -155 -10 -6 -16 -5 -17 3 -15 127 -13 177 12 279 14 59 26 116 26 126 0
33 13 32 37 -3 12 -18 23 -36 23 -39z"/>
</g>
</svg>
